<?xml version="1.0" encoding="UTF-8"?>
<svg id="Layer_1" data-name="Layer 1" xmlns="http://www.w3.org/2000/svg" viewBox="0 0 423.42 453.84">
  <path d="M51.06,345.4c-9.57,0-20.47-6.21-32.7-18.65-12.25-12.43-18.36-22.75-18.36-30.98s3.34-16.44,10.04-24.67c6.69-8.22,13.57-12.34,20.66-12.34s15.29,9.38,24.67,28.11c9.37,18.75,14.06,32.9,14.06,42.46,0,3.07-2.11,6.51-6.31,10.33-4.21,3.82-8.23,5.74-12.05,5.74Z"/>
  <path d="M241.55,365.48l-1.15-14.92c0-4.59,2.3-7.94,6.89-10.04,4.59-2.1,8.79-3.16,12.62-3.16s9.37,4.4,16.64,13.2c7.26,8.79,10.9,16.25,10.9,22.38,0,21.03-9.38,39.78-28.11,56.23-18.75,16.44-40.65,24.67-65.69,24.67s-46.19-7.84-63.4-23.52c-17.21-15.69-25.82-36.92-25.82-63.69,0-15.69,5.16-32.13,15.49-49.34,10.33-17.21,22.18-32.32,35.57-45.33,36.72-35.57,60.24-65.12,70.57-88.64,10.33-23.52,17.02-36.81,20.08-39.88s5.93-4.59,8.61-4.59c9.94,0,14.92,12.25,14.92,36.72s-13.58,50.88-40.74,79.18c-11.47,12.25-22.86,24.29-34.14,36.14-11.29,11.86-20.85,24.2-28.69,37.01-7.84,12.82-11.76,24.96-11.76,36.43s4.11,20.94,12.34,28.4c8.22,7.46,18.26,11.19,30.12,11.19s22.28-3.64,31.27-10.9c8.98-7.27,13.48-16.45,13.48-27.54ZM262.2,0c9.18,0,19.7,5.94,31.56,17.79,11.85,11.86,17.79,21.9,17.79,30.12s-3.16,16.26-9.47,24.1c-6.31,7.84-12.82,11.76-19.51,11.76s-14.63-9.18-23.81-27.54c-9.18-18.36-13.77-32.32-13.77-41.88,0-2.67,1.91-5.74,5.74-9.18,3.82-3.44,7.65-5.16,11.47-5.16Z"/>
  <path d="M405.06,345.4c-9.57,0-20.47-6.21-32.7-18.65-12.25-12.43-18.36-22.75-18.36-30.98s3.34-16.44,10.04-24.67c6.69-8.22,13.57-12.34,20.66-12.34s15.29,9.38,24.67,28.11c9.37,18.75,14.06,32.9,14.06,42.46,0,3.07-2.11,6.51-6.31,10.33-4.21,3.82-8.23,5.74-12.05,5.74Z"/>
</svg>